<svg width="32" height="32" viewBox="0 0 32 32" fill="none" xmlns="http://www.w3.org/2000/svg">
<path d="M20 9.75H12V22.25H20V9.75Z" fill="#FF5F00"/>
<path d="M12.9311 15.9989C12.9301 14.7875 13.2059 13.5919 13.7376 12.5023C14.2693 11.4128 15.0429 10.4579 16 9.71C14.8146 8.7825 13.3911 8.20574 11.8921 8.04564C10.393 7.88554 8.87902 8.14857 7.52304 8.80465C6.16705 9.46074 5.02381 10.4834 4.22398 11.7558C3.42415 13.0282 3 14.499 3 16C3 17.501 3.42415 18.9718 4.22398 20.2442C5.02381 21.5166 6.16705 22.5393 7.52304 23.1953C8.87902 23.8514 10.393 24.1145 11.8921 23.9544C13.3911 23.7943 14.8146 23.2175 16 22.29C15.0426 21.5419 14.2688 20.5866 13.7371 19.4967C13.2054 18.4067 12.9298 17.2106 12.9311 15.9989Z" fill="#EB001B"/>
<path d="M29 16.0011C29 17.5021 28.5758 18.9728 27.7759 20.2451C26.976 21.5173 25.8326 22.5399 24.4766 23.1958C23.1206 23.8517 21.6065 24.1146 20.1076 23.9542C18.6086 23.7939 17.1852 23.217 16 22.2893C16.9566 21.5408 17.73 20.5858 18.2617 19.4963C18.7935 18.4068 19.0698 17.2113 19.0698 16C19.0698 14.7887 18.7935 13.5932 18.2617 12.5037C17.73 11.4142 16.9566 10.4592 16 9.71073C17.1852 8.78304 18.6086 8.20607 20.1076 8.04576C21.6065 7.88545 23.1206 8.14827 24.4766 8.80419C25.8326 9.46011 26.976 10.4827 27.7759 11.7549C28.5758 13.0272 29 14.4979 29 15.9989V16.0011Z" fill="#F79E1B"/>
</svg>
