<svg width="32" height="32" viewBox="0 0 32 32" fill="none" xmlns="http://www.w3.org/2000/svg">
<path d="M10.7265 29.0515L11.2116 25.969L10.1326 25.943H4.98126L8.56071 3.19824C8.57109 3.13067 8.6074 3.06569 8.66187 3.01891C8.71375 2.97212 8.78118 2.94873 8.85381 2.94873H17.5379C20.4222 2.94873 22.4116 3.54912 23.4517 4.73691C23.9394 5.29312 24.248 5.87532 24.3985 6.5147C24.5567 7.18787 24.5593 7.98839 24.4063 8.96825L24.3959 9.03843V9.66481L24.8835 9.94032C25.2933 10.1586 25.6202 10.4082 25.8692 10.6941C26.2868 11.1697 26.5565 11.7753 26.6681 12.4926C26.7848 13.2308 26.7459 14.1093 26.5539 15.1021C26.3309 16.2457 25.9729 17.2412 25.4879 18.0547C25.0417 18.8059 24.4737 19.427 23.7967 19.9105C23.1534 20.3679 22.3857 20.7162 21.5194 20.9397C20.6816 21.158 19.7244 21.2698 18.674 21.2698H17.997C17.5145 21.2698 17.045 21.4439 16.6767 21.7558C16.3084 22.0755 16.062 22.5122 15.9868 22.9878L15.9349 23.2659L15.0789 28.698L15.04 28.8982C15.0297 28.9605 15.0115 28.9917 14.9856 29.0151C14.9622 29.0359 14.9285 29.0463 14.8974 29.0463H10.7265V29.0515Z" fill="#253B80"/>
<path d="M25.3402 9.11426C25.3142 9.2806 25.2857 9.44954 25.252 9.62368C24.1055 15.5158 20.1889 17.5535 15.1828 17.5535H12.6357C12.0236 17.5535 11.5074 17.998 11.4114 18.6036L10.1068 26.8947L9.73844 29.2443C9.67619 29.642 9.98226 30.0006 10.3817 30.0006H14.9027C15.437 30.0006 15.8935 29.6108 15.9765 29.0832L16.0206 28.8518L16.8714 23.4405L16.9259 23.1442C17.0089 22.614 17.4654 22.2241 17.9997 22.2241H18.6767C23.055 22.2241 26.484 20.4437 27.4852 15.2871C27.9029 13.1325 27.6876 11.3339 26.58 10.0707C26.2428 9.68866 25.8278 9.37157 25.3402 9.11426Z" fill="#179BD7"/>
<path d="M24.1416 8.63543C23.9678 8.58344 23.7863 8.53926 23.6021 8.49507C23.4154 8.45349 23.226 8.4171 23.0289 8.38591C22.3415 8.27415 21.5893 8.22217 20.7827 8.22217H13.9739C13.8053 8.22217 13.6471 8.26115 13.5044 8.32873C13.1906 8.47948 12.9571 8.77838 12.9001 9.14225L11.4527 18.3353L11.4112 18.603C11.5072 17.9974 12.0234 17.5529 12.6355 17.5529H15.1826C20.1887 17.5529 24.1053 15.5152 25.2518 9.62308C25.2855 9.44894 25.314 9.28 25.34 9.11366C25.0495 8.96031 24.7356 8.82776 24.3984 8.716C24.3154 8.68741 24.2298 8.66142 24.1416 8.63543Z" fill="#222D65"/>
<path d="M12.9006 9.14493C12.9576 8.78106 13.1911 8.48216 13.5049 8.33141C13.6476 8.26384 13.8058 8.22485 13.9744 8.22485H20.7831C21.5898 8.22485 22.342 8.27683 23.0294 8.38859C23.2265 8.41978 23.4158 8.45617 23.6026 8.49776C23.7867 8.53934 23.9683 8.58613 24.1421 8.63811C24.2303 8.6641 24.3159 8.69009 24.3989 8.71868C24.7361 8.83044 25.0499 8.963 25.3404 9.11634C25.6802 6.93829 25.3378 5.45681 24.1628 4.11307C22.8685 2.63158 20.5315 2 17.5383 2H8.85163C8.23949 2 7.71814 2.44445 7.62476 3.05004L4.009 26.0313C3.93897 26.4861 4.28653 26.8968 4.74564 26.8968H10.107L11.4532 18.338L12.9006 9.14493Z" fill="#253B80"/>
</svg>
